<svg width="296" height="86" viewBox="0 0 296 86" fill="none" xmlns="http://www.w3.org/2000/svg">
<path opacity="0.2" fill-rule="evenodd" clip-rule="evenodd" d="M0 26.9643L4.48485 29.3929C10.4646 31.8214 19.4343 36.6786 29.899 34.25C38.8687 31.8214 49.3333 22.1071 59.798 14.8214C68.7677 9.96428 79.2323 5.10714 88.202 14.8214C98.6667 22.1071 109.131 46.3929 118.101 46.3929C128.566 46.3929 137.535 22.1071 148 12.3929C158.465 0.25 167.434 0.25 177.899 14.8214C186.869 26.9643 197.333 56.1071 207.798 56.1071C216.768 56.1071 227.232 26.9643 236.202 17.25C246.667 9.96429 257.131 17.25 266.101 17.25C276.566 17.25 285.535 9.96429 291.515 5.10714L296 0.25V85.25H291.515C285.535 85.25 276.566 85.25 266.101 85.25C257.131 85.25 246.667 85.25 236.202 85.25C227.232 85.25 216.768 85.25 207.798 85.25C197.333 85.25 186.869 85.25 177.899 85.25C167.434 85.25 158.465 85.25 148 85.25C137.535 85.25 128.566 85.25 118.101 85.25C109.131 85.25 98.6667 85.25 88.202 85.25C79.2323 85.25 68.7677 85.25 59.798 85.25C49.3333 85.25 38.8687 85.25 29.899 85.25C19.4343 85.25 10.4646 85.25 4.48485 85.25H0V26.9643Z" fill="#00ADD2"/>
</svg>
