<svg width="299" height="59" viewBox="0 0 299 59" fill="none" xmlns="http://www.w3.org/2000/svg">
<path d="M1 27.9643L5.48485 30.3929C11.4646 32.8214 20.4343 37.6786 30.899 35.25C39.8687 32.8214 50.3333 23.1071 60.798 15.8214C69.7677 10.9643 80.2323 6.10714 89.202 15.8214C99.6667 23.1071 110.131 47.3929 119.101 47.3929C129.566 47.3929 138.535 23.1071 149 13.3929C159.465 1.25 168.434 1.25 178.899 15.8214C187.869 27.9643 198.333 57.1071 208.798 57.1071C217.768 57.1071 228.232 27.9643 237.202 18.25C247.667 10.9643 258.131 18.25 267.101 18.25C277.566 18.25 286.535 10.9643 292.515 6.10714L297 1.25" stroke="#00ADD2" stroke-width="3"/>
</svg>
